<svg height="512pt" viewBox="0 -54 512 512" width="512pt" xmlns="http://www.w3.org/2000/svg"><path d="m203 338h-160v-301.464844c0-14.65625 11.878906-26.535156 26.535156-26.535156h106.929688c14.65625 0 26.535156 11.878906 26.535156 26.535156zm0 0" fill="#9bf"/><path d="m10 338h224v56h-224zm0 0" fill="#6a80ff"/><path d="m243.5 82h234.5c13.253906 0 24 10.746094 24 24s-10.746094 24-24 24h-234.5zm0 0" fill="#edf2fa"/><path d="m294.304688 131.003906 158.851562 91.710938c11.480469 6.628906 15.414062 21.308594 8.785156 32.785156-6.625 11.480469-21.304687 15.414062-32.785156 8.785156l-203.082031-117.25 16.398437-16.03125zm0 0" fill="#d8d8e4"/><path d="m268.570312 171.570312 92.714844 160.585938c6.625 11.480469 2.691406 26.15625-8.785156 32.785156-11.480469 6.628906-26.15625 2.695313-32.785156-8.785156l-115.925782-200.785156 22.285157-8.335938zm0 0" fill="#b3b6c3"/><path d="m203 150c24.300781 0 44-19.699219 44-44s-19.699219-44-44-44zm0 0" fill="#6a80ff"/><path d="m83 62h80v48h-80zm0 0" fill="#fff"/><path d="m478 72h-233.089844c-7.902344-9.726562-19.117187-16.648438-31.910156-19.058594v-16.40625c0-20.144531-16.390625-36.535156-36.535156-36.535156h-106.929688c-20.144531 0-36.535156 16.390625-36.535156 36.535156v151.464844c0 5.523438 4.476562 10 10 10s10-4.476562 10-10v-151.464844c0-9.117187 7.417969-16.535156 16.535156-16.535156h106.929688c9.117187 0 16.535156 7.417969 16.535156 16.535156v291.464844h-140v-46c0-5.523438-4.476562-10-10-10s-10 4.476562-10 10v46h-23c-5.523438 0-10 4.476562-10 10v56c0 5.523438 4.476562 10 10 10h224c5.523438 0 10-4.476562 10-10v-56c0-5.523438-4.476562-10-10-10h-21v-136.679688l98.054688 169.835938c4.542968 7.867188 11.875 13.492188 20.644531 15.839844 2.929687.785156 5.902343 1.175781 8.855469 1.175781 5.890624 0 11.707031-1.546875 16.945312-4.570313 7.863281-4.539062 13.492188-11.871093 15.84375-20.644531 2.347656-8.773437 1.140625-17.9375-3.398438-25.800781l-74.054687-128.269531 128.265625 74.058593c5.238281 3.023438 11.054688 4.570313 16.945312 4.570313 2.953126 0 5.925782-.390625 8.855469-1.175781 8.773438-2.351563 16.105469-7.976563 20.644531-15.839844 4.542969-7.867188 5.746094-17.027344 3.394532-25.800781-2.347656-8.773438-7.972656-16.105469-15.839844-20.644531l-128.265625-74.054688h148.109375c18.746094 0 34-15.253906 34-34s-15.253906-34-34-34zm-254 312h-204v-36h204zm13-278c0 15.269531-10.117188 28.21875-24 32.496094v-64.992188c13.882812 4.277344 24 17.226563 24 32.496094zm115.625 231.15625c1.867188 3.238281 2.367188 7.011719 1.398438 10.625-.96875 3.609375-3.285157 6.628906-6.523438 8.5-3.238281 1.867188-7.011719 2.367188-10.625 1.398438-3.609375-.96875-6.628906-3.285157-8.5-6.523438l-111.425781-192.992188c1.832031-.492187 3.621093-1.078124 5.371093-1.75l38.925782 22.476563zm95.53125-105.78125c3.238281 1.871094 5.554688 4.890625 6.523438 8.503906.96875 3.609375.472656 7.382813-1.398438 10.621094s-4.890625 5.554688-8.5 6.523438-7.386719.46875-10.625-1.398438l-193.011719-111.4375c1.328125-1.328125 2.582031-2.726562 3.765625-4.1875h44.980469zm29.84375-111.375h-222.851562c1.203124-4.46875 1.851562-9.15625 1.851562-14s-.648438-9.53125-1.851562-14h222.851562c7.71875 0 14 6.28125 14 14s-6.28125 14-14 14zm0 0"/><path d="m83 120h80c5.523438 0 10-4.476562 10-10v-48c0-5.523438-4.476562-10-10-10h-80c-5.523438 0-10 4.476562-10 10v48c0 5.523438 4.476562 10 10 10zm10-48h60v28h-60zm0 0"/><path d="m83 158.128906h80c5.523438 0 10-4.480468 10-10 0-5.523437-4.476562-10-10-10h-80c-5.523438 0-10 4.476563-10 10 0 5.519532 4.476562 10 10 10zm0 0"/><path d="m43 243.160156c2.628906 0 5.210938-1.070312 7.070312-2.929687 1.859376-1.859375 2.929688-4.441407 2.929688-7.070313s-1.070312-5.210937-2.929688-7.070312c-1.859374-1.859375-4.441406-2.929688-7.070312-2.929688s-5.210938 1.070313-7.070312 2.929688c-1.859376 1.859375-2.929688 4.441406-2.929688 7.070312s1.070312 5.210938 2.929688 7.070313c1.859374 1.859375 4.441406 2.929687 7.070312 2.929687zm0 0"/></svg>